<svg width="27" height="28" viewBox="0 0 27 28" fill="none" xmlns="http://www.w3.org/2000/svg">
<path d="M2 6.80078H4.55238H24.9714" stroke="#808080" stroke-width="3" stroke-linecap="round" stroke-linejoin="round"/>
<path d="M8.38082 6.8V4.4C8.38082 3.76348 8.64973 3.15303 9.12839 2.70294C9.60706 2.25286 10.2563 2 10.9332 2H16.038C16.7149 2 17.3641 2.25286 17.8428 2.70294C18.3214 3.15303 18.5903 3.76348 18.5903 4.4V6.8M22.4189 6.8V23.6C22.4189 24.2365 22.15 24.847 21.6713 25.2971C21.1927 25.7471 20.5435 26 19.8665 26H7.10463C6.42769 26 5.77849 25.7471 5.29982 25.2971C4.82116 24.847 4.55225 24.2365 4.55225 23.6V6.8H22.4189Z" stroke="#808080" stroke-width="3" stroke-linecap="round" stroke-linejoin="round"/>
<path d="M10.9341 12.7988V19.9988" stroke="#808080" stroke-width="3" stroke-linecap="round" stroke-linejoin="round"/>
<path d="M16.0386 12.7988V19.9988" stroke="#808080" stroke-width="3" stroke-linecap="round" stroke-linejoin="round"/>
</svg>
