<svg width="20" height="11" fill="none" xmlns="http://www.w3.org/2000/svg"><path d="m11.103 10.54 8.454-8.094c.14-.133.252-.29.328-.465a1.375 1.375 0 0 0 0-1.1 1.428 1.428 0 0 0-.328-.465A1.533 1.533 0 0 0 18.502 0c-.395 0-.774.15-1.054.416L9.966 7.494 2.559.416A1.533 1.533 0 0 0 1.504 0C1.109 0 .729.15.449.416.308.548.195.706.118.88A1.375 1.375 0 0 0 0 1.431c0 .19.04.376.118.55.077.175.19.333.33.465l8.455 8.094c.14.145.31.26.5.34a1.556 1.556 0 0 0 1.2 0 1.5 1.5 0 0 0 .5-.34Z" fill="#323232"/></svg>