<svg width="28" height="28" viewBox="0 0 28 28" fill="none" xmlns="http://www.w3.org/2000/svg">
<path d="M12.7349 4.5293H4.38553C3.75285 4.5293 3.14608 4.78063 2.69871 5.228C2.25133 5.67538 2 6.28215 2 6.91483V23.6135C2 24.2462 2.25133 24.853 2.69871 25.3004C3.14608 25.7477 3.75285 25.9991 4.38553 25.9991H21.0843C21.7169 25.9991 22.3237 25.7477 22.7711 25.3004C23.2185 24.853 23.4698 24.2462 23.4698 23.6135V15.2642" stroke="#808080" stroke-width="3" stroke-linecap="round" stroke-linejoin="round"/>
<path d="M21.6803 2.74109C22.1548 2.26658 22.7984 2 23.4694 2C24.1405 2 24.7841 2.26658 25.2586 2.74109C25.7331 3.2156 25.9997 3.85918 25.9997 4.53024C25.9997 5.2013 25.7331 5.84487 25.2586 6.31939L13.9273 17.6507L9.15625 18.8434L10.349 14.0724L21.6803 2.74109Z" stroke="#808080" stroke-width="3" stroke-linecap="round" stroke-linejoin="round"/>
</svg>
