<svg width="54" height="54" viewBox="0 0 54 54" fill="none" xmlns="http://www.w3.org/2000/svg">
<rect x="0.5" y="0.5" width="53" height="53" rx="7.5" fill="#1D71B8"/>
<path d="M28.4223 19.2236L34.7764 25.5747L28.4223 19.2236ZM32.5084 13.6285L15.3271 30.8098C14.4393 31.6963 13.8339 32.8258 13.587 34.0559L12 42L19.9441 40.41C21.1742 40.164 22.3022 39.561 23.1902 38.6729L40.3715 21.4916C40.8878 20.9753 41.2973 20.3624 41.5768 19.6878C41.8562 19.0132 42 18.2902 42 17.5601C42 16.8299 41.8562 16.1069 41.5768 15.4323C41.2973 14.7577 40.8878 14.1448 40.3715 13.6285C39.8552 13.1122 39.2423 12.7027 38.5677 12.4232C37.8931 12.1438 37.1701 12 36.4399 12C35.7098 12 34.9868 12.1438 34.3122 12.4232C33.6376 12.7027 33.0247 13.1122 32.5084 13.6285Z" fill="white" stroke="#1D71B8" stroke-width="1.5" stroke-linecap="round" stroke-linejoin="round"/>
<rect x="0.5" y="0.5" width="53" height="53" rx="7.5" stroke="#1D71B8"/>
</svg>
