<svg width="670" height="120" viewBox="0 0 670 120" fill="none" xmlns="http://www.w3.org/2000/svg">
<path d="M207.6 53H213.5C214.98 53 216.293 53.2933 217.44 53.88C218.587 54.4667 219.473 55.2933 220.1 56.36C220.74 57.4133 221.06 58.6267 221.06 60C221.06 61.3733 220.74 62.5933 220.1 63.66C219.473 64.7133 218.587 65.5333 217.44 66.12C216.293 66.7067 214.98 67 213.5 67H207.6V53ZM213.38 65.26C214.513 65.26 215.507 65.04 216.36 64.6C217.227 64.16 217.893 63.5467 218.36 62.76C218.827 61.96 219.06 61.04 219.06 60C219.06 58.96 218.827 58.0467 218.36 57.26C217.893 56.46 217.227 55.84 216.36 55.4C215.507 54.96 214.513 54.74 213.38 54.74H209.6V65.26H213.38ZM225.683 58.18C226.017 57.5667 226.51 57.1 227.163 56.78C227.817 56.46 228.61 56.3 229.543 56.3V58.16C229.437 58.1467 229.29 58.14 229.103 58.14C228.063 58.14 227.243 58.4533 226.643 59.08C226.057 59.6933 225.763 60.5733 225.763 61.72V67H223.843V56.4H225.683V58.18ZM235.75 56.3C237.217 56.3 238.337 56.66 239.11 57.38C239.897 58.1 240.29 59.1733 240.29 60.6V67H238.47V65.6C238.15 66.0933 237.69 66.4733 237.09 66.74C236.504 66.9933 235.804 67.12 234.99 67.12C233.804 67.12 232.85 66.8333 232.13 66.26C231.424 65.6867 231.07 64.9333 231.07 64C231.07 63.0667 231.41 62.32 232.09 61.76C232.77 61.1867 233.85 60.9 235.33 60.9H238.37V60.52C238.37 59.6933 238.13 59.06 237.65 58.62C237.17 58.18 236.464 57.96 235.53 57.96C234.904 57.96 234.29 58.0667 233.69 58.28C233.09 58.48 232.584 58.7533 232.17 59.1L231.37 57.66C231.917 57.22 232.57 56.8867 233.33 56.66C234.09 56.42 234.897 56.3 235.75 56.3ZM235.31 65.64C236.044 65.64 236.677 65.48 237.21 65.16C237.744 64.8267 238.13 64.36 238.37 63.76V62.28H235.41C233.784 62.28 232.97 62.8267 232.97 63.92C232.97 64.4533 233.177 64.8733 233.59 65.18C234.004 65.4867 234.577 65.64 235.31 65.64ZM254.042 56.4V65.56C254.042 67.4133 253.582 68.78 252.662 69.66C251.742 70.5533 250.369 71 248.542 71C247.542 71 246.589 70.86 245.682 70.58C244.775 70.3133 244.042 69.9267 243.482 69.42L244.402 67.94C244.895 68.3667 245.502 68.7 246.222 68.94C246.955 69.1933 247.709 69.32 248.482 69.32C249.722 69.32 250.635 69.0267 251.222 68.44C251.822 67.8533 252.122 66.96 252.122 65.76V64.92C251.669 65.4667 251.109 65.88 250.442 66.16C249.789 66.4267 249.075 66.56 248.302 66.56C247.289 66.56 246.369 66.3467 245.542 65.92C244.729 65.48 244.089 64.8733 243.622 64.1C243.155 63.3133 242.922 62.42 242.922 61.42C242.922 60.42 243.155 59.5333 243.622 58.76C244.089 57.9733 244.729 57.3667 245.542 56.94C246.369 56.5133 247.289 56.3 248.302 56.3C249.102 56.3 249.842 56.4467 250.522 56.74C251.215 57.0333 251.782 57.4667 252.222 58.04V56.4H254.042ZM248.522 64.88C249.215 64.88 249.835 64.7333 250.382 64.44C250.942 64.1467 251.375 63.74 251.682 63.22C252.002 62.6867 252.162 62.0867 252.162 61.42C252.162 60.3933 251.822 59.5667 251.142 58.94C250.462 58.3 249.589 57.98 248.522 57.98C247.442 57.98 246.562 58.3 245.882 58.94C245.202 59.5667 244.862 60.3933 244.862 61.42C244.862 62.0867 245.015 62.6867 245.322 63.22C245.642 63.74 246.075 64.1467 246.622 64.44C247.182 64.7333 247.815 64.88 248.522 64.88ZM266.942 56.3C268.408 56.3 269.528 56.66 270.302 57.38C271.088 58.1 271.482 59.1733 271.482 60.6V67H269.662V65.6C269.342 66.0933 268.882 66.4733 268.282 66.74C267.695 66.9933 266.995 67.12 266.182 67.12C264.995 67.12 264.042 66.8333 263.322 66.26C262.615 65.6867 262.262 64.9333 262.262 64C262.262 63.0667 262.602 62.32 263.282 61.76C263.962 61.1867 265.042 60.9 266.522 60.9H269.562V60.52C269.562 59.6933 269.322 59.06 268.842 58.62C268.362 58.18 267.655 57.96 266.722 57.96C266.095 57.96 265.482 58.0667 264.882 58.28C264.282 58.48 263.775 58.7533 263.362 59.1L262.562 57.66C263.108 57.22 263.762 56.8867 264.522 56.66C265.282 56.42 266.088 56.3 266.942 56.3ZM266.502 65.64C267.235 65.64 267.868 65.48 268.402 65.16C268.935 64.8267 269.322 64.36 269.562 63.76V62.28H266.602C264.975 62.28 264.162 62.8267 264.162 63.92C264.162 64.4533 264.368 64.8733 264.782 65.18C265.195 65.4867 265.768 65.64 266.502 65.64ZM280.695 56.3C282.042 56.3 283.108 56.6933 283.895 57.48C284.695 58.2533 285.095 59.3933 285.095 60.9V67H283.175V61.12C283.175 60.0933 282.928 59.32 282.435 58.8C281.942 58.28 281.235 58.02 280.315 58.02C279.275 58.02 278.455 58.3267 277.855 58.94C277.255 59.54 276.955 60.4067 276.955 61.54V67H275.035V56.4H276.875V58C277.262 57.4533 277.782 57.0333 278.435 56.74C279.102 56.4467 279.855 56.3 280.695 56.3ZM298.707 52.16V67H296.867V65.32C296.44 65.9067 295.9 66.3533 295.247 66.66C294.593 66.9667 293.873 67.12 293.087 67.12C292.06 67.12 291.14 66.8933 290.327 66.44C289.513 65.9867 288.873 65.3533 288.407 64.54C287.953 63.7133 287.727 62.7667 287.727 61.7C287.727 60.6333 287.953 59.6933 288.407 58.88C288.873 58.0667 289.513 57.4333 290.327 56.98C291.14 56.5267 292.06 56.3 293.087 56.3C293.847 56.3 294.547 56.4467 295.187 56.74C295.827 57.02 296.36 57.44 296.787 58V52.16H298.707ZM293.247 65.44C293.913 65.44 294.52 65.2867 295.067 64.98C295.613 64.66 296.04 64.22 296.347 63.66C296.653 63.0867 296.807 62.4333 296.807 61.7C296.807 60.9667 296.653 60.32 296.347 59.76C296.04 59.1867 295.613 58.7467 295.067 58.44C294.52 58.1333 293.913 57.98 293.247 57.98C292.567 57.98 291.953 58.1333 291.407 58.44C290.873 58.7467 290.447 59.1867 290.127 59.76C289.82 60.32 289.667 60.9667 289.667 61.7C289.667 62.4333 289.82 63.0867 290.127 63.66C290.447 64.22 290.873 64.66 291.407 64.98C291.953 65.2867 292.567 65.44 293.247 65.44ZM317.711 52.16V67H315.871V65.32C315.444 65.9067 314.904 66.3533 314.251 66.66C313.597 66.9667 312.877 67.12 312.091 67.12C311.064 67.12 310.144 66.8933 309.331 66.44C308.517 65.9867 307.877 65.3533 307.411 64.54C306.957 63.7133 306.731 62.7667 306.731 61.7C306.731 60.6333 306.957 59.6933 307.411 58.88C307.877 58.0667 308.517 57.4333 309.331 56.98C310.144 56.5267 311.064 56.3 312.091 56.3C312.851 56.3 313.551 56.4467 314.191 56.74C314.831 57.02 315.364 57.44 315.791 58V52.16H317.711ZM312.251 65.44C312.917 65.44 313.524 65.2867 314.071 64.98C314.617 64.66 315.044 64.22 315.351 63.66C315.657 63.0867 315.811 62.4333 315.811 61.7C315.811 60.9667 315.657 60.32 315.351 59.76C315.044 59.1867 314.617 58.7467 314.071 58.44C313.524 58.1333 312.917 57.98 312.251 57.98C311.571 57.98 310.957 58.1333 310.411 58.44C309.877 58.7467 309.451 59.1867 309.131 59.76C308.824 60.32 308.671 60.9667 308.671 61.7C308.671 62.4333 308.824 63.0867 309.131 63.66C309.451 64.22 309.877 64.66 310.411 64.98C310.957 65.2867 311.571 65.44 312.251 65.44ZM323.183 58.18C323.517 57.5667 324.01 57.1 324.663 56.78C325.317 56.46 326.11 56.3 327.043 56.3V58.16C326.937 58.1467 326.79 58.14 326.603 58.14C325.563 58.14 324.743 58.4533 324.143 59.08C323.557 59.6933 323.263 60.5733 323.263 61.72V67H321.343V56.4H323.183V58.18ZM333.852 67.12C332.799 67.12 331.852 66.8867 331.012 66.42C330.172 65.9533 329.512 65.3133 329.032 64.5C328.566 63.6733 328.332 62.74 328.332 61.7C328.332 60.66 328.566 59.7333 329.032 58.92C329.512 58.0933 330.172 57.4533 331.012 57C331.852 56.5333 332.799 56.3 333.852 56.3C334.906 56.3 335.846 56.5333 336.672 57C337.512 57.4533 338.166 58.0933 338.632 58.92C339.112 59.7333 339.352 60.66 339.352 61.7C339.352 62.74 339.112 63.6733 338.632 64.5C338.166 65.3133 337.512 65.9533 336.672 66.42C335.846 66.8867 334.906 67.12 333.852 67.12ZM333.852 65.44C334.532 65.44 335.139 65.2867 335.672 64.98C336.219 64.66 336.646 64.22 336.952 63.66C337.259 63.0867 337.412 62.4333 337.412 61.7C337.412 60.9667 337.259 60.32 336.952 59.76C336.646 59.1867 336.219 58.7467 335.672 58.44C335.139 58.1333 334.532 57.98 333.852 57.98C333.172 57.98 332.559 58.1333 332.012 58.44C331.479 58.7467 331.052 59.1867 330.732 59.76C330.426 60.32 330.272 60.9667 330.272 61.7C330.272 62.4333 330.426 63.0867 330.732 63.66C331.052 64.22 331.479 64.66 332.012 64.98C332.559 65.2867 333.172 65.44 333.852 65.44ZM347.628 56.3C348.654 56.3 349.574 56.5267 350.388 56.98C351.201 57.4333 351.834 58.0667 352.288 58.88C352.754 59.6933 352.988 60.6333 352.988 61.7C352.988 62.7667 352.754 63.7133 352.288 64.54C351.834 65.3533 351.201 65.9867 350.388 66.44C349.574 66.8933 348.654 67.12 347.628 67.12C346.868 67.12 346.168 66.9733 345.528 66.68C344.901 66.3867 344.368 65.96 343.928 65.4V70.88H342.008V56.4H343.848V58.08C344.274 57.4933 344.814 57.0533 345.467 56.76C346.121 56.4533 346.841 56.3 347.628 56.3ZM347.468 65.44C348.148 65.44 348.754 65.2867 349.288 64.98C349.834 64.66 350.261 64.22 350.568 63.66C350.888 63.0867 351.048 62.4333 351.048 61.7C351.048 60.9667 350.888 60.32 350.568 59.76C350.261 59.1867 349.834 58.7467 349.288 58.44C348.754 58.1333 348.148 57.98 347.468 57.98C346.801 57.98 346.194 58.14 345.648 58.46C345.114 58.7667 344.688 59.2 344.368 59.76C344.061 60.32 343.908 60.9667 343.908 61.7C343.908 62.4333 344.061 63.0867 344.368 63.66C344.674 64.22 345.101 64.66 345.648 64.98C346.194 65.2867 346.801 65.44 347.468 65.44ZM365.551 67.12C364.498 67.12 363.551 66.8867 362.711 66.42C361.871 65.9533 361.211 65.3133 360.731 64.5C360.265 63.6733 360.031 62.74 360.031 61.7C360.031 60.66 360.265 59.7333 360.731 58.92C361.211 58.0933 361.871 57.4533 362.711 57C363.551 56.5333 364.498 56.3 365.551 56.3C366.605 56.3 367.545 56.5333 368.371 57C369.211 57.4533 369.865 58.0933 370.331 58.92C370.811 59.7333 371.051 60.66 371.051 61.7C371.051 62.74 370.811 63.6733 370.331 64.5C369.865 65.3133 369.211 65.9533 368.371 66.42C367.545 66.8867 366.605 67.12 365.551 67.12ZM365.551 65.44C366.231 65.44 366.838 65.2867 367.371 64.98C367.918 64.66 368.345 64.22 368.651 63.66C368.958 63.0867 369.111 62.4333 369.111 61.7C369.111 60.9667 368.958 60.32 368.651 59.76C368.345 59.1867 367.918 58.7467 367.371 58.44C366.838 58.1333 366.231 57.98 365.551 57.98C364.871 57.98 364.258 58.1333 363.711 58.44C363.178 58.7467 362.751 59.1867 362.431 59.76C362.125 60.32 361.971 60.9667 361.971 61.7C361.971 62.4333 362.125 63.0867 362.431 63.66C362.751 64.22 363.178 64.66 363.711 64.98C364.258 65.2867 364.871 65.44 365.551 65.44ZM375.547 58.18C375.88 57.5667 376.373 57.1 377.027 56.78C377.68 56.46 378.473 56.3 379.407 56.3V58.16C379.3 58.1467 379.153 58.14 378.967 58.14C377.927 58.14 377.107 58.4533 376.507 59.08C375.92 59.6933 375.627 60.5733 375.627 61.72V67H373.707V56.4H375.547V58.18Z" fill="#808080"/>
<path d="M400.02 59.74C400.833 59.9667 401.473 60.38 401.94 60.98C402.407 61.5667 402.64 62.3133 402.64 63.22C402.64 64.4333 402.18 65.3667 401.26 66.02C400.353 66.6733 399.027 67 397.28 67H390.6V53H396.88C398.48 53 399.713 53.32 400.58 53.96C401.46 54.6 401.9 55.4867 401.9 56.62C401.9 57.3533 401.727 57.9867 401.38 58.52C401.047 59.0533 400.593 59.46 400.02 59.74ZM392.6 54.62V59.1H396.7C397.727 59.1 398.513 58.9133 399.06 58.54C399.62 58.1533 399.9 57.5933 399.9 56.86C399.9 56.1267 399.62 55.5733 399.06 55.2C398.513 54.8133 397.727 54.62 396.7 54.62H392.6ZM397.2 65.38C398.333 65.38 399.187 65.1933 399.76 64.82C400.333 64.4467 400.62 63.86 400.62 63.06C400.62 61.5 399.48 60.72 397.2 60.72H392.6V65.38H397.2ZM407.297 58.18C407.63 57.5667 408.123 57.1 408.777 56.78C409.43 56.46 410.223 56.3 411.157 56.3V58.16C411.05 58.1467 410.903 58.14 410.717 58.14C409.677 58.14 408.857 58.4533 408.257 59.08C407.67 59.6933 407.377 60.5733 407.377 61.72V67H405.457V56.4H407.297V58.18ZM417.965 67.12C416.912 67.12 415.965 66.8867 415.125 66.42C414.285 65.9533 413.625 65.3133 413.145 64.5C412.679 63.6733 412.445 62.74 412.445 61.7C412.445 60.66 412.679 59.7333 413.145 58.92C413.625 58.0933 414.285 57.4533 415.125 57C415.965 56.5333 416.912 56.3 417.965 56.3C419.019 56.3 419.959 56.5333 420.785 57C421.625 57.4533 422.279 58.0933 422.745 58.92C423.225 59.7333 423.465 60.66 423.465 61.7C423.465 62.74 423.225 63.6733 422.745 64.5C422.279 65.3133 421.625 65.9533 420.785 66.42C419.959 66.8867 419.019 67.12 417.965 67.12ZM417.965 65.44C418.645 65.44 419.252 65.2867 419.785 64.98C420.332 64.66 420.759 64.22 421.065 63.66C421.372 63.0867 421.525 62.4333 421.525 61.7C421.525 60.9667 421.372 60.32 421.065 59.76C420.759 59.1867 420.332 58.7467 419.785 58.44C419.252 58.1333 418.645 57.98 417.965 57.98C417.285 57.98 416.672 58.1333 416.125 58.44C415.592 58.7467 415.165 59.1867 414.845 59.76C414.539 60.32 414.385 60.9667 414.385 61.7C414.385 62.4333 414.539 63.0867 414.845 63.66C415.165 64.22 415.592 64.66 416.125 64.98C416.672 65.2867 417.285 65.44 417.965 65.44ZM441.868 56.4L437.908 67H436.068L433.008 58.96L429.908 67H428.068L424.128 56.4H425.948L429.028 64.84L432.228 56.4H433.848L436.988 64.88L440.148 56.4H441.868ZM446.719 67.12C445.853 67.12 445.019 67.0067 444.219 66.78C443.419 66.54 442.793 66.24 442.339 65.88L443.139 64.36C443.606 64.6933 444.173 64.96 444.839 65.16C445.506 65.36 446.179 65.46 446.859 65.46C448.539 65.46 449.379 64.98 449.379 64.02C449.379 63.7 449.266 63.4467 449.039 63.26C448.813 63.0733 448.526 62.94 448.179 62.86C447.846 62.7667 447.366 62.6667 446.739 62.56C445.886 62.4267 445.186 62.2733 444.639 62.1C444.106 61.9267 443.646 61.6333 443.259 61.22C442.873 60.8067 442.679 60.2267 442.679 59.48C442.679 58.52 443.079 57.7533 443.879 57.18C444.679 56.5933 445.753 56.3 447.099 56.3C447.806 56.3 448.513 56.3867 449.219 56.56C449.926 56.7333 450.506 56.9667 450.959 57.26L450.139 58.78C449.273 58.22 448.253 57.94 447.079 57.94C446.266 57.94 445.646 58.0733 445.219 58.34C444.793 58.6067 444.579 58.96 444.579 59.4C444.579 59.7467 444.699 60.02 444.939 60.22C445.179 60.42 445.473 60.5667 445.819 60.66C446.179 60.7533 446.679 60.86 447.319 60.98C448.173 61.1267 448.859 61.2867 449.379 61.46C449.913 61.62 450.366 61.9 450.739 62.3C451.113 62.7 451.299 63.26 451.299 63.98C451.299 64.94 450.886 65.7067 450.059 66.28C449.246 66.84 448.133 67.12 446.719 67.12ZM463.279 61.76C463.279 61.9067 463.266 62.1 463.239 62.34H454.639C454.759 63.2733 455.166 64.0267 455.859 64.6C456.566 65.16 457.439 65.44 458.479 65.44C459.746 65.44 460.766 65.0133 461.539 64.16L462.599 65.4C462.119 65.96 461.519 66.3867 460.799 66.68C460.092 66.9733 459.299 67.12 458.419 67.12C457.299 67.12 456.306 66.8933 455.439 66.44C454.572 65.9733 453.899 65.3267 453.419 64.5C452.952 63.6733 452.719 62.74 452.719 61.7C452.719 60.6733 452.946 59.7467 453.399 58.92C453.866 58.0933 454.499 57.4533 455.299 57C456.112 56.5333 457.026 56.3 458.039 56.3C459.052 56.3 459.952 56.5333 460.739 57C461.539 57.4533 462.159 58.0933 462.599 58.92C463.052 59.7467 463.279 60.6933 463.279 61.76ZM458.039 57.92C457.119 57.92 456.346 58.2 455.719 58.76C455.106 59.32 454.746 60.0533 454.639 60.96H461.439C461.332 60.0667 460.966 59.34 460.339 58.78C459.726 58.2067 458.959 57.92 458.039 57.92Z" fill="#1D71B8"/>
<rect x="0.5" y="0.5" width="669" height="119" rx="11.5" stroke="#1D71B8" stroke-dasharray="20 20"/>
</svg>
