<svg width="12" height="10" viewBox="0 0 12 10" fill="none" xmlns="http://www.w3.org/2000/svg">
<path d="M10.2 0H1.8C1.32261 0 0.864773 0.197544 0.527208 0.549175C0.189642 0.900806 0 1.37772 0 1.875V8.125C0 8.62228 0.189642 9.09919 0.527208 9.45083C0.864773 9.80246 1.32261 10 1.8 10H10.2C10.6774 10 11.1352 9.80246 11.4728 9.45083C11.8104 9.09919 12 8.62228 12 8.125V1.875C12 1.37772 11.8104 0.900806 11.4728 0.549175C11.1352 0.197544 10.6774 0 10.2 0ZM9.954 1.25L6.426 4.925C6.37022 4.98358 6.30386 5.03008 6.23075 5.06181C6.15763 5.09354 6.07921 5.10987 6 5.10987C5.92079 5.10987 5.84237 5.09354 5.76925 5.06181C5.69614 5.03008 5.62978 4.98358 5.574 4.925L2.046 1.25H9.954ZM10.8 8.125C10.8 8.29076 10.7368 8.44973 10.6243 8.56694C10.5117 8.68415 10.3591 8.75 10.2 8.75H1.8C1.64087 8.75 1.48826 8.68415 1.37574 8.56694C1.26321 8.44973 1.2 8.29076 1.2 8.125V2.13125L4.728 5.80625C5.0655 6.15738 5.523 6.3546 6 6.3546C6.477 6.3546 6.9345 6.15738 7.272 5.80625L10.8 2.13125V8.125Z" fill="#323232"/>
</svg>
