<svg width="12" height="15" viewBox="0 0 12 15" fill="none" xmlns="http://www.w3.org/2000/svg">
<path d="M6.45768 14.7798L6.45761 14.7797L6.455 14.782C6.32821 14.8904 6.16685 14.95 6 14.95C5.83315 14.95 5.67179 14.8904 5.545 14.782L5.54399 14.7811C5.42365 14.6768 4.05318 13.4891 2.7108 11.8242C1.36156 10.1508 0.05 8.00639 0.05 5.99998C0.05 4.42195 0.676873 2.90855 1.79271 1.79271C2.90856 0.676871 4.42196 0.05 6 0.05C7.57804 0.05 9.09144 0.676871 10.2073 1.79271C11.3231 2.90855 11.95 4.42195 11.95 5.99998C11.95 8.00649 10.6477 10.1509 9.30321 11.8243C7.96013 13.4959 6.585 14.6852 6.45768 14.7798ZM5.96577 13.2739L5.99991 13.306L6.03413 13.274C6.83459 12.5261 7.96209 11.3405 8.8899 10.0273C9.81626 8.71609 10.55 7.26891 10.55 5.99998C10.55 4.79325 10.0706 3.63594 9.21734 2.78266C8.36405 1.92937 7.20674 1.45 6 1.45C4.79326 1.45 3.63595 1.92937 2.78266 2.78266C1.92937 3.63594 1.45 4.79325 1.45 5.99998C1.45 7.26893 2.18375 8.71423 3.11011 10.0245C4.03792 11.3367 5.1654 12.5224 5.96577 13.2739ZM4.36107 3.54715C4.84619 3.223 5.41655 3.04999 6 3.04999C6.78239 3.04999 7.53273 3.36079 8.08597 3.91402C8.6392 4.46725 8.95 5.21759 8.95 5.99998C8.95 6.58343 8.77699 7.15378 8.45284 7.63891C8.12868 8.12403 7.66796 8.50214 7.12892 8.72542C6.58987 8.94869 5.99673 9.00711 5.42448 8.89329C4.85224 8.77946 4.3266 8.4985 3.91403 8.08594C3.50147 7.67338 3.22051 7.14774 3.10668 6.57549C2.99286 6.00325 3.05128 5.41011 3.27455 4.87107C3.49783 4.33203 3.87594 3.8713 4.36107 3.54715ZM5.13887 7.28875C5.39376 7.45907 5.69344 7.54998 6 7.54998C6.41109 7.54998 6.80533 7.38667 7.09601 7.09599C7.3867 6.80531 7.55 6.41106 7.55 5.99998C7.55 5.69342 7.45909 5.39374 7.28878 5.13885C7.11846 4.88395 6.87638 4.68529 6.59316 4.56797C6.30993 4.45066 5.99828 4.41996 5.69761 4.47977C5.39694 4.53957 5.12076 4.6872 4.90399 4.90397C4.68721 5.12074 4.53959 5.39692 4.47978 5.69759C4.41998 5.99826 4.45067 6.30991 4.56799 6.59314C4.6853 6.87636 4.88397 7.11844 5.13887 7.28875Z" fill="#323232" stroke="white" stroke-width="0.1"/>
</svg>
