<svg width="16" height="20" fill="none" xmlns="http://www.w3.org/2000/svg"><path d="M8 11.429c-.72 0-1.422-.21-2.02-.602a3.586 3.586 0 0 1-1.34-1.603 3.512 3.512 0 0 1-.206-2.063c.14-.693.486-1.33.995-1.829.508-.5 1.156-.84 1.862-.977a3.698 3.698 0 0 1 2.1.203c.665.27 1.233.728 1.633 1.315.4.588.613 1.278.613 1.985a3.544 3.544 0 0 1-1.067 2.524A3.675 3.675 0 0 1 8 11.429Zm0-5.714a2.21 2.21 0 0 0-1.212.36c-.359.236-.638.571-.804.963a2.107 2.107 0 0 0-.124 1.238c.084.415.292.797.597 1.097a2.22 2.22 0 0 0 2.378.465c.399-.163.74-.438.98-.79a2.116 2.116 0 0 0-.273-2.705A2.204 2.204 0 0 0 8 5.715Z" fill="#1D71B8"/><path d="m8 20-6.135-7.106c-.086-.107-.17-.214-.253-.323A7.687 7.687 0 0 1 0 7.857c0-2.084.843-4.082 2.343-5.556A8.074 8.074 0 0 1 8 0c2.122 0 4.157.828 5.657 2.301A7.787 7.787 0 0 1 16 7.857a7.685 7.685 0 0 1-1.61 4.712l-.002.002s-.218.282-.25.32L8 20Zm-5.228-8.29c.002 0 .17.22.21.268L8 17.79l5.025-5.821.203-.261a6.284 6.284 0 0 0 1.317-3.852 6.37 6.37 0 0 0-1.917-4.546A6.606 6.606 0 0 0 8 1.43c-1.736 0-3.4.677-4.628 1.882a6.37 6.37 0 0 0-1.917 4.546 6.287 6.287 0 0 0 1.318 3.854Z" fill="#1D71B8"/></svg>