<svg width="12" height="12" viewBox="0 0 12 12" fill="none" xmlns="http://www.w3.org/2000/svg">
<path d="M10.5126 6.61911C10.3802 6.61911 10.2417 6.57683 10.1092 6.54664C9.84092 6.48735 9.57728 6.40863 9.32036 6.31111C9.04101 6.20919 8.73394 6.21448 8.45825 6.32597C8.18256 6.43746 7.95772 6.64727 7.827 6.91503L7.69452 7.18679C7.10802 6.85957 6.56907 6.45317 6.09277 5.97896C5.61994 5.50127 5.21471 4.96075 4.88845 4.37254L5.14136 4.20344C5.40834 4.07235 5.61754 3.84685 5.7287 3.57035C5.83987 3.29386 5.84515 2.9859 5.74352 2.70573C5.64791 2.44751 5.56946 2.18322 5.50868 1.9146C5.47857 1.78174 5.45448 1.64284 5.43642 1.50394C5.36329 1.07856 5.14113 0.693331 4.80994 0.417642C4.47875 0.141953 4.06029 -0.00608375 3.62993 0.000191624H1.82345C1.56393 -0.00225214 1.30694 0.0514118 1.06997 0.15753C0.832992 0.263648 0.621598 0.41973 0.450175 0.615148C0.278751 0.810567 0.151324 1.04073 0.076568 1.28998C0.00181172 1.53923 -0.0185186 1.80171 0.0169612 2.05954C0.337756 4.58958 1.48987 6.94032 3.29131 8.74045C5.09275 10.5406 7.44084 11.6875 9.96467 12H10.1935C10.6375 12.0007 11.0663 11.8373 11.3978 11.541C11.5883 11.3701 11.7405 11.1607 11.8443 10.9264C11.9481 10.6922 12.0012 10.4385 12 10.1822V8.37046C11.9926 7.95097 11.8403 7.54706 11.569 7.22765C11.2978 6.90825 10.9244 6.69316 10.5126 6.61911ZM10.8137 10.2426C10.8136 10.3284 10.7953 10.4131 10.76 10.4912C10.7247 10.5693 10.6732 10.6389 10.609 10.6955C10.5417 10.7538 10.463 10.7973 10.378 10.8233C10.293 10.8493 10.2035 10.8572 10.1152 10.8465C7.86006 10.5565 5.76534 9.52182 4.16147 7.90562C2.5576 6.28943 1.53586 4.18372 1.25741 1.92064C1.24783 1.83218 1.25623 1.74269 1.2821 1.65757C1.30798 1.57246 1.35079 1.49349 1.40796 1.42543C1.46438 1.36101 1.53384 1.30939 1.61171 1.27398C1.68958 1.23858 1.77408 1.22021 1.85958 1.2201H3.66606C3.80609 1.21698 3.94283 1.26291 4.05274 1.34999C4.16264 1.43707 4.23884 1.55985 4.26822 1.69719C4.29231 1.86227 4.32242 2.02532 4.35855 2.18637C4.42811 2.50472 4.52069 2.81757 4.63554 3.12244L3.79252 3.51498C3.72043 3.54815 3.6556 3.59527 3.60173 3.65364C3.54785 3.71201 3.50601 3.78047 3.47859 3.8551C3.45117 3.92974 3.43873 4.00906 3.44197 4.08853C3.4452 4.168 3.46406 4.24605 3.49746 4.31819C4.36409 6.17991 5.85627 7.67644 7.71259 8.5456C7.85919 8.606 8.02363 8.606 8.17023 8.5456C8.24533 8.51866 8.31434 8.47703 8.37326 8.42312C8.43218 8.36921 8.47984 8.3041 8.51346 8.23156L8.8868 7.38608C9.1981 7.49773 9.51581 7.5905 9.83822 7.66388C9.9988 7.70012 10.1614 7.73031 10.326 7.75447C10.4629 7.78393 10.5853 7.86036 10.6722 7.97058C10.759 8.08081 10.8048 8.21795 10.8017 8.35839L10.8137 10.2426Z" fill="#323232"/>
</svg>
