<svg width="52" height="52" viewBox="0 0 52 52" fill="none" xmlns="http://www.w3.org/2000/svg">
<circle cx="26" cy="26" r="23.5" stroke="white" stroke-width="5"/>
<path d="M26 2.5C31.1528 2.5 36.1628 4.19359 40.2587 7.32005C44.3546 10.4465 47.3094 14.8325 48.6682 19.8029C50.027 24.7733 49.7145 30.0526 47.7788 34.828C45.8431 39.6033 42.3916 43.6102 37.9554 46.2316C33.5193 48.853 28.3445 49.9438 23.2277 49.3359C18.1109 48.728 13.3357 46.4552 9.63724 42.8674C5.93876 39.2796 3.52202 34.5756 2.75904 29.4796C1.99607 24.3837 2.92916 19.1781 5.41468 14.6645" stroke="#FFCA06" stroke-width="5" stroke-linecap="round" stroke-linejoin="round"/>
<path d="M12.5181 25.904H15.4781V26.408H12.5181V25.904ZM12.5821 28.488H15.9501V29H11.9901V23.4H15.8301V23.912H12.5821V28.488ZM19.3657 24.76C19.707 24.76 20.0057 24.8267 20.2617 24.96C20.523 25.088 20.7257 25.2853 20.8697 25.552C21.019 25.8187 21.0937 26.1547 21.0937 26.56V29H20.5257V26.616C20.5257 26.1733 20.4137 25.84 20.1897 25.616C19.971 25.3867 19.6617 25.272 19.2617 25.272C18.963 25.272 18.7017 25.3333 18.4777 25.456C18.259 25.5733 18.0884 25.7467 17.9657 25.976C17.8484 26.2 17.7897 26.472 17.7897 26.792V29H17.2217V24.8H17.7657V25.952L17.6777 25.736C17.811 25.432 18.0244 25.1947 18.3177 25.024C18.611 24.848 18.9604 24.76 19.3657 24.76ZM24.4199 30.592C24.0359 30.592 23.6679 30.536 23.3159 30.424C22.9639 30.312 22.6786 30.152 22.4599 29.944L22.7479 29.512C22.9453 29.688 23.1879 29.8267 23.4759 29.928C23.7693 30.0347 24.0786 30.088 24.4039 30.088C24.9373 30.088 25.3293 29.9627 25.5799 29.712C25.8306 29.4667 25.9559 29.0827 25.9559 28.56V27.512L26.0359 26.792L25.9799 26.072V24.8H26.5239V28.488C26.5239 29.2133 26.3453 29.744 25.9879 30.08C25.6359 30.4213 25.1133 30.592 24.4199 30.592ZM24.3159 28.84C23.9159 28.84 23.5559 28.7547 23.2359 28.584C22.9159 28.408 22.6626 28.1653 22.4759 27.856C22.2946 27.5467 22.2039 27.192 22.2039 26.792C22.2039 26.392 22.2946 26.04 22.4759 25.736C22.6626 25.4267 22.9159 25.1867 23.2359 25.016C23.5559 24.8453 23.9159 24.76 24.3159 24.76C24.6893 24.76 25.0253 24.8373 25.3239 24.992C25.6226 25.1467 25.8599 25.376 26.0359 25.68C26.2119 25.984 26.2999 26.3547 26.2999 26.792C26.2999 27.2293 26.2119 27.6 26.0359 27.904C25.8599 28.208 25.6226 28.44 25.3239 28.6C25.0253 28.76 24.6893 28.84 24.3159 28.84ZM24.3719 28.336C24.6813 28.336 24.9559 28.272 25.1959 28.144C25.4359 28.0107 25.6253 27.8293 25.7639 27.6C25.9026 27.3653 25.9719 27.096 25.9719 26.792C25.9719 26.488 25.9026 26.2213 25.7639 25.992C25.6253 25.7627 25.4359 25.584 25.1959 25.456C24.9559 25.3227 24.6813 25.256 24.3719 25.256C24.0679 25.256 23.7933 25.3227 23.5479 25.456C23.3079 25.584 23.1186 25.7627 22.9799 25.992C22.8466 26.2213 22.7799 26.488 22.7799 26.792C22.7799 27.096 22.8466 27.3653 22.9799 27.6C23.1186 27.8293 23.3079 28.0107 23.5479 28.144C23.7933 28.272 24.0679 28.336 24.3719 28.336ZM28.1045 29V23.064H28.6725V29H28.1045ZM30.2529 29V24.8H30.8209V29H30.2529ZM30.5409 23.872C30.4236 23.872 30.3249 23.832 30.2449 23.752C30.1649 23.672 30.1249 23.576 30.1249 23.464C30.1249 23.352 30.1649 23.2587 30.2449 23.184C30.3249 23.104 30.4236 23.064 30.5409 23.064C30.6583 23.064 30.7569 23.1013 30.8369 23.176C30.9169 23.2507 30.9569 23.344 30.9569 23.456C30.9569 23.5733 30.9169 23.672 30.8369 23.752C30.7623 23.832 30.6636 23.872 30.5409 23.872ZM33.5294 29.04C33.1827 29.04 32.8547 28.992 32.5454 28.896C32.236 28.7947 31.9934 28.6693 31.8174 28.52L32.0734 28.072C32.244 28.2 32.4627 28.312 32.7294 28.408C32.996 28.4987 33.276 28.544 33.5694 28.544C33.9694 28.544 34.2574 28.4827 34.4334 28.36C34.6094 28.232 34.6974 28.064 34.6974 27.856C34.6974 27.7013 34.6467 27.5813 34.5454 27.496C34.4494 27.4053 34.3214 27.3387 34.1614 27.296C34.0014 27.248 33.8227 27.208 33.6254 27.176C33.428 27.144 33.2307 27.1067 33.0334 27.064C32.8414 27.0213 32.6654 26.96 32.5054 26.88C32.3454 26.7947 32.2147 26.68 32.1134 26.536C32.0174 26.392 31.9694 26.2 31.9694 25.96C31.9694 25.7307 32.0334 25.5253 32.1614 25.344C32.2894 25.1627 32.476 25.0213 32.7214 24.92C32.972 24.8133 33.276 24.76 33.6334 24.76C33.9054 24.76 34.1774 24.7973 34.4494 24.872C34.7214 24.9413 34.9454 25.0347 35.1214 25.152L34.8734 25.608C34.6867 25.48 34.4867 25.3893 34.2734 25.336C34.06 25.2773 33.8467 25.248 33.6334 25.248C33.2547 25.248 32.9747 25.3147 32.7934 25.448C32.6174 25.576 32.5294 25.7413 32.5294 25.944C32.5294 26.104 32.5774 26.2293 32.6734 26.32C32.7747 26.4107 32.9054 26.4827 33.0654 26.536C33.2307 26.584 33.4094 26.624 33.6014 26.656C33.7987 26.688 33.9934 26.728 34.1854 26.776C34.3827 26.8187 34.5614 26.88 34.7214 26.96C34.8867 27.0347 35.0174 27.144 35.1134 27.288C35.2147 27.4267 35.2654 27.6107 35.2654 27.84C35.2654 28.0853 35.196 28.2987 35.0574 28.48C34.924 28.656 34.7267 28.7947 34.4654 28.896C34.2094 28.992 33.8974 29.04 33.5294 29.04ZM38.4516 24.76C38.793 24.76 39.0916 24.8267 39.3476 24.96C39.609 25.088 39.8116 25.2853 39.9556 25.552C40.105 25.8187 40.1796 26.1547 40.1796 26.56V29H39.6116V26.616C39.6116 26.1733 39.4996 25.84 39.2756 25.616C39.057 25.3867 38.7476 25.272 38.3476 25.272C38.049 25.272 37.7876 25.3333 37.5636 25.456C37.345 25.5733 37.1743 25.7467 37.0516 25.976C36.9343 26.2 36.8756 26.472 36.8756 26.792V29H36.3076V23.064H36.8756V25.952L36.7636 25.736C36.897 25.432 37.1103 25.1947 37.4036 25.024C37.697 24.848 38.0463 24.76 38.4516 24.76Z" fill="white"/>
</svg>
