<svg width="52" height="52" viewBox="0 0 52 52" fill="none" xmlns="http://www.w3.org/2000/svg">
<circle cx="26" cy="26" r="23.5" stroke="white" stroke-width="5"/>
<path d="M26 2.5C31.1528 2.5 36.1628 4.19359 40.2587 7.32005C44.3546 10.4465 47.3094 14.8325 48.6682 19.8029C50.027 24.7733 49.7145 30.0526 47.7788 34.828C45.8431 39.6033 42.3916 43.6102 37.9554 46.2316C33.5193 48.853 28.3445 49.9438 23.2277 49.3359C18.1109 48.728 13.3357 46.4552 9.63724 42.8674C5.93876 39.2796 3.52202 34.5756 2.75904 29.4796C1.99607 24.3837 2.92916 19.1781 5.41468 14.6645" stroke="#FFCA06" stroke-width="5" stroke-linecap="round" stroke-linejoin="round"/>
<path d="M13.8502 26.112H16.8102V26.624H13.8502V26.112ZM13.9142 29H13.3222V23.4H17.1622V23.912H13.9142V29ZM18.1865 29V24.8H18.7305V25.944L18.6745 25.744C18.7919 25.424 18.9892 25.1813 19.2665 25.016C19.5439 24.8453 19.8879 24.76 20.2985 24.76V25.312C20.2772 25.312 20.2559 25.312 20.2345 25.312C20.2132 25.3067 20.1919 25.304 20.1705 25.304C19.7279 25.304 19.3812 25.44 19.1305 25.712C18.8799 25.9787 18.7545 26.36 18.7545 26.856V29H18.1865ZM23.0799 29.04C22.6426 29.04 22.2586 28.9493 21.9279 28.768C21.5972 28.5813 21.3386 28.328 21.1519 28.008C20.9652 27.6827 20.8719 27.312 20.8719 26.896C20.8719 26.48 20.9599 26.112 21.1359 25.792C21.3172 25.472 21.5626 25.2213 21.8719 25.04C22.1866 24.8533 22.5386 24.76 22.9279 24.76C23.3226 24.76 23.6719 24.8507 23.9759 25.032C24.2852 25.208 24.5279 25.4587 24.7039 25.784C24.8799 26.104 24.9679 26.4747 24.9679 26.896C24.9679 26.9227 24.9652 26.952 24.9599 26.984C24.9599 27.0107 24.9599 27.04 24.9599 27.072H21.3039V26.648H24.6559L24.4319 26.816C24.4319 26.512 24.3652 26.2427 24.2319 26.008C24.1039 25.768 23.9279 25.5813 23.7039 25.448C23.4799 25.3147 23.2212 25.248 22.9279 25.248C22.6399 25.248 22.3812 25.3147 22.1519 25.448C21.9226 25.5813 21.7439 25.768 21.6159 26.008C21.4879 26.248 21.4239 26.5227 21.4239 26.832V26.92C21.4239 27.24 21.4932 27.5227 21.6319 27.768C21.7759 28.008 21.9732 28.1973 22.2239 28.336C22.4799 28.4693 22.7706 28.536 23.0959 28.536C23.3519 28.536 23.5892 28.4907 23.8079 28.4C24.0319 28.3093 24.2239 28.1707 24.3839 27.984L24.7039 28.352C24.5172 28.576 24.2826 28.7467 23.9999 28.864C23.7226 28.9813 23.4159 29.04 23.0799 29.04ZM28.268 24.76C28.6094 24.76 28.908 24.8267 29.164 24.96C29.4254 25.088 29.628 25.2853 29.772 25.552C29.9214 25.8187 29.996 26.1547 29.996 26.56V29H29.428V26.616C29.428 26.1733 29.316 25.84 29.092 25.616C28.8734 25.3867 28.564 25.272 28.164 25.272C27.8654 25.272 27.604 25.3333 27.38 25.456C27.1614 25.5733 26.9907 25.7467 26.868 25.976C26.7507 26.2 26.692 26.472 26.692 26.792V29H26.124V24.8H26.668V25.952L26.58 25.736C26.7134 25.432 26.9267 25.1947 27.22 25.024C27.5134 24.848 27.8627 24.76 28.268 24.76ZM33.2743 29.04C32.8583 29.04 32.4849 28.9493 32.1543 28.768C31.8289 28.5813 31.5729 28.328 31.3863 28.008C31.1996 27.6827 31.1063 27.312 31.1063 26.896C31.1063 26.4747 31.1996 26.104 31.3863 25.784C31.5729 25.464 31.8289 25.2133 32.1543 25.032C32.4849 24.8507 32.8583 24.76 33.2743 24.76C33.6316 24.76 33.9543 24.8293 34.2423 24.968C34.5303 25.1067 34.7569 25.3147 34.9223 25.592L34.4983 25.88C34.3543 25.6667 34.1756 25.5093 33.9623 25.408C33.7489 25.3067 33.5169 25.256 33.2663 25.256C32.9676 25.256 32.6983 25.3253 32.4583 25.464C32.2183 25.5973 32.0289 25.7867 31.8903 26.032C31.7516 26.2773 31.6823 26.5653 31.6823 26.896C31.6823 27.2267 31.7516 27.5147 31.8903 27.76C32.0289 28.0053 32.2183 28.1973 32.4583 28.336C32.6983 28.4693 32.9676 28.536 33.2663 28.536C33.5169 28.536 33.7489 28.4853 33.9623 28.384C34.1756 28.2827 34.3543 28.128 34.4983 27.92L34.9223 28.208C34.7569 28.48 34.5303 28.688 34.2423 28.832C33.9543 28.9707 33.6316 29.04 33.2743 29.04ZM38.1196 24.76C38.4609 24.76 38.7596 24.8267 39.0156 24.96C39.2769 25.088 39.4796 25.2853 39.6236 25.552C39.7729 25.8187 39.8476 26.1547 39.8476 26.56V29H39.2796V26.616C39.2796 26.1733 39.1676 25.84 38.9436 25.616C38.7249 25.3867 38.4156 25.272 38.0156 25.272C37.7169 25.272 37.4556 25.3333 37.2316 25.456C37.0129 25.5733 36.8423 25.7467 36.7196 25.976C36.6023 26.2 36.5436 26.472 36.5436 26.792V29H35.9756V23.064H36.5436V25.952L36.4316 25.736C36.5649 25.432 36.7783 25.1947 37.0716 25.024C37.3649 24.848 37.7143 24.76 38.1196 24.76Z" fill="white"/>
</svg>
