<svg width="52" height="52" viewBox="0 0 52 52" fill="none" xmlns="http://www.w3.org/2000/svg">
<circle cx="26" cy="26" r="23.5" stroke="white" stroke-width="5"/>
<path d="M26 2.5C31.1528 2.5 36.1628 4.19359 40.2587 7.32005C44.3546 10.4465 47.3094 14.8325 48.6682 19.8029C50.027 24.7733 49.7145 30.0526 47.7788 34.828C45.8431 39.6033 42.3916 43.6102 37.9554 46.2316C33.5193 48.853 28.3445 49.9438 23.2277 49.3359C18.1109 48.728 13.3357 46.4552 9.63724 42.8674C5.93876 39.2796 3.52202 34.5756 2.75904 29.4796C1.99607 24.3837 2.92916 19.1781 5.41468 14.6645" stroke="#FFCA06" stroke-width="5" stroke-linecap="round" stroke-linejoin="round"/>
<path d="M16.4297 29.048C15.7151 29.048 15.1524 28.8427 14.7417 28.432C14.3311 28.0213 14.1257 27.4133 14.1257 26.608V23.4H14.7177V26.584C14.7177 27.2453 14.8671 27.7333 15.1657 28.048C15.4644 28.3627 15.8857 28.52 16.4297 28.52C16.9791 28.52 17.4031 28.3627 17.7017 28.048C18.0004 27.7333 18.1497 27.2453 18.1497 26.584V23.4H18.7257V26.608C18.7257 27.4133 18.5204 28.0213 18.1097 28.432C17.7044 28.8427 17.1444 29.048 16.4297 29.048ZM19.9337 29V28.624L22.7337 25.08L22.8537 25.272H19.9817V24.8H23.3017V25.168L20.5097 28.72L20.3657 28.528H23.3577V29H19.9337ZM26.6436 29.04C26.2756 29.04 25.9449 28.9573 25.6516 28.792C25.3583 28.6213 25.1263 28.376 24.9556 28.056C24.7849 27.736 24.6996 27.3493 24.6996 26.896C24.6996 26.4373 24.7849 26.0507 24.9556 25.736C25.1316 25.416 25.3663 25.1733 25.6596 25.008C25.9529 24.8427 26.2809 24.76 26.6436 24.76C27.0436 24.76 27.4009 24.8507 27.7156 25.032C28.0356 25.208 28.2863 25.456 28.4676 25.776C28.6489 26.096 28.7396 26.4693 28.7396 26.896C28.7396 27.3173 28.6489 27.6907 28.4676 28.016C28.2863 28.336 28.0356 28.5867 27.7156 28.768C27.4009 28.9493 27.0436 29.04 26.6436 29.04ZM24.4756 29V23.064H25.0436V26.04L24.9636 26.888L25.0196 27.736V29H24.4756ZM26.6036 28.536C26.9023 28.536 27.1689 28.4693 27.4036 28.336C27.6383 28.1973 27.8249 28.0053 27.9636 27.76C28.1023 27.5093 28.1716 27.2213 28.1716 26.896C28.1716 26.5653 28.1023 26.2773 27.9636 26.032C27.8249 25.7867 27.6383 25.5973 27.4036 25.464C27.1689 25.3253 26.9023 25.256 26.6036 25.256C26.3049 25.256 26.0356 25.3253 25.7956 25.464C25.5609 25.5973 25.3743 25.7867 25.2356 26.032C25.1023 26.2773 25.0356 26.5653 25.0356 26.896C25.0356 27.2213 25.1023 27.5093 25.2356 27.76C25.3743 28.0053 25.5609 28.1973 25.7956 28.336C26.0356 28.4693 26.3049 28.536 26.6036 28.536ZM31.6815 29.04C31.2441 29.04 30.8601 28.9493 30.5295 28.768C30.1988 28.5813 29.9401 28.328 29.7535 28.008C29.5668 27.6827 29.4735 27.312 29.4735 26.896C29.4735 26.48 29.5615 26.112 29.7375 25.792C29.9188 25.472 30.1641 25.2213 30.4735 25.04C30.7881 24.8533 31.1401 24.76 31.5295 24.76C31.9241 24.76 32.2735 24.8507 32.5775 25.032C32.8868 25.208 33.1295 25.4587 33.3055 25.784C33.4815 26.104 33.5695 26.4747 33.5695 26.896C33.5695 26.9227 33.5668 26.952 33.5615 26.984C33.5615 27.0107 33.5615 27.04 33.5615 27.072H29.9055V26.648H33.2575L33.0335 26.816C33.0335 26.512 32.9668 26.2427 32.8335 26.008C32.7055 25.768 32.5295 25.5813 32.3055 25.448C32.0815 25.3147 31.8228 25.248 31.5295 25.248C31.2415 25.248 30.9828 25.3147 30.7535 25.448C30.5241 25.5813 30.3455 25.768 30.2175 26.008C30.0895 26.248 30.0255 26.5227 30.0255 26.832V26.92C30.0255 27.24 30.0948 27.5227 30.2335 27.768C30.3775 28.008 30.5748 28.1973 30.8255 28.336C31.0815 28.4693 31.3721 28.536 31.6975 28.536C31.9535 28.536 32.1908 28.4907 32.4095 28.4C32.6335 28.3093 32.8255 28.1707 32.9855 27.984L33.3055 28.352C33.1188 28.576 32.8841 28.7467 32.6015 28.864C32.3241 28.9813 32.0175 29.04 31.6815 29.04ZM35.1736 27.912L35.1896 27.184L37.8056 24.8H38.5016L36.6536 26.568L36.3336 26.84L35.1736 27.912ZM34.7256 29V23.064H35.2936V29H34.7256ZM37.9816 29L36.2296 26.816L36.5976 26.376L38.6776 29H37.9816Z" fill="white"/>
</svg>
