<svg width="52" height="52" viewBox="0 0 52 52" fill="none" xmlns="http://www.w3.org/2000/svg">
<circle cx="26" cy="26" r="23.5" stroke="white" stroke-width="5"/>
<path d="M26 2.5C31.1528 2.5 36.1628 4.19359 40.2587 7.32005C44.3546 10.4465 47.3094 14.8325 48.6682 19.8029C50.027 24.7733 49.7145 30.0526 47.7788 34.828C45.8431 39.6033 42.3916 43.6102 37.9554 46.2316C33.5193 48.853 28.3445 49.9438 23.2277 49.3359C18.1109 48.728 13.3357 46.4552 9.63724 42.8674C5.93876 39.2796 3.52202 34.5756 2.75904 29.4796C1.99607 24.3837 2.92916 19.1781 5.41468 14.6645" stroke="#FFCA06" stroke-width="5" stroke-linecap="round" stroke-linejoin="round"/>
<path d="M13.6974 27.608L13.6734 26.888L17.0654 23.4H17.7454L15.2734 25.992L14.9374 26.352L13.6974 27.608ZM13.1854 29V23.4H13.7774V29H13.1854ZM17.2094 29L14.7934 26.216L15.1934 25.784L17.9134 29H17.2094ZM20.2696 29.04C19.8643 29.04 19.499 28.9493 19.1736 28.768C18.8536 28.5813 18.6003 28.328 18.4136 28.008C18.227 27.6827 18.1336 27.312 18.1336 26.896C18.1336 26.4747 18.227 26.104 18.4136 25.784C18.6003 25.464 18.8536 25.2133 19.1736 25.032C19.4936 24.8507 19.859 24.76 20.2696 24.76C20.6856 24.76 21.0536 24.8507 21.3736 25.032C21.699 25.2133 21.9523 25.464 22.1336 25.784C22.3203 26.104 22.4136 26.4747 22.4136 26.896C22.4136 27.312 22.3203 27.6827 22.1336 28.008C21.9523 28.328 21.699 28.5813 21.3736 28.768C21.0483 28.9493 20.6803 29.04 20.2696 29.04ZM20.2696 28.536C20.5736 28.536 20.843 28.4693 21.0776 28.336C21.3123 28.1973 21.4963 28.0053 21.6296 27.76C21.7683 27.5093 21.8376 27.2213 21.8376 26.896C21.8376 26.5653 21.7683 26.2773 21.6296 26.032C21.4963 25.7867 21.3123 25.5973 21.0776 25.464C20.843 25.3253 20.5763 25.256 20.2776 25.256C19.979 25.256 19.7123 25.3253 19.4776 25.464C19.243 25.5973 19.0563 25.7867 18.9176 26.032C18.779 26.2773 18.7096 26.5653 18.7096 26.896C18.7096 27.2213 18.779 27.5093 18.9176 27.76C19.0563 28.0053 19.243 28.1973 19.4776 28.336C19.7123 28.4693 19.9763 28.536 20.2696 28.536ZM23.5733 29V24.8H24.1173V25.944L24.0613 25.744C24.1786 25.424 24.3759 25.1813 24.6533 25.016C24.9306 24.8453 25.2746 24.76 25.6853 24.76V25.312C25.6639 25.312 25.6426 25.312 25.6213 25.312C25.5999 25.3067 25.5786 25.304 25.5573 25.304C25.1146 25.304 24.7679 25.44 24.5173 25.712C24.2666 25.9787 24.1413 26.36 24.1413 26.856V29H23.5733ZM28.4666 29.04C28.0293 29.04 27.6453 28.9493 27.3146 28.768C26.984 28.5813 26.7253 28.328 26.5386 28.008C26.352 27.6827 26.2586 27.312 26.2586 26.896C26.2586 26.48 26.3466 26.112 26.5226 25.792C26.704 25.472 26.9493 25.2213 27.2586 25.04C27.5733 24.8533 27.9253 24.76 28.3146 24.76C28.7093 24.76 29.0586 24.8507 29.3626 25.032C29.672 25.208 29.9146 25.4587 30.0906 25.784C30.2666 26.104 30.3546 26.4747 30.3546 26.896C30.3546 26.9227 30.352 26.952 30.3466 26.984C30.3466 27.0107 30.3466 27.04 30.3466 27.072H26.6906V26.648H30.0426L29.8186 26.816C29.8186 26.512 29.752 26.2427 29.6186 26.008C29.4906 25.768 29.3146 25.5813 29.0906 25.448C28.8666 25.3147 28.608 25.248 28.3146 25.248C28.0266 25.248 27.768 25.3147 27.5386 25.448C27.3093 25.5813 27.1306 25.768 27.0026 26.008C26.8746 26.248 26.8106 26.5227 26.8106 26.832V26.92C26.8106 27.24 26.88 27.5227 27.0186 27.768C27.1626 28.008 27.36 28.1973 27.6106 28.336C27.8666 28.4693 28.1573 28.536 28.4826 28.536C28.7386 28.536 28.976 28.4907 29.1946 28.4C29.4186 28.3093 29.6106 28.1707 29.7706 27.984L30.0906 28.352C29.904 28.576 29.6693 28.7467 29.3866 28.864C29.1093 28.9813 28.8026 29.04 28.4666 29.04ZM34.0256 29V28.072L34.0016 27.92V26.368C34.0016 26.0107 33.9002 25.736 33.6976 25.544C33.5002 25.352 33.2042 25.256 32.8096 25.256C32.5376 25.256 32.2789 25.3013 32.0336 25.392C31.7882 25.4827 31.5802 25.6027 31.4096 25.752L31.1536 25.328C31.3669 25.1467 31.6229 25.008 31.9216 24.912C32.2202 24.8107 32.5349 24.76 32.8656 24.76C33.4096 24.76 33.8282 24.896 34.1216 25.168C34.4202 25.4347 34.5696 25.8427 34.5696 26.392V29H34.0256ZM32.5776 29.04C32.2629 29.04 31.9882 28.9893 31.7536 28.888C31.5242 28.7813 31.3482 28.6373 31.2256 28.456C31.1029 28.2693 31.0416 28.056 31.0416 27.816C31.0416 27.5973 31.0922 27.4 31.1936 27.224C31.3002 27.0427 31.4709 26.8987 31.7056 26.792C31.9456 26.68 32.2656 26.624 32.6656 26.624H34.1136V27.048H32.6816C32.2762 27.048 31.9936 27.12 31.8336 27.264C31.6789 27.408 31.6016 27.5867 31.6016 27.8C31.6016 28.04 31.6949 28.232 31.8816 28.376C32.0682 28.52 32.3296 28.592 32.6656 28.592C32.9856 28.592 33.2602 28.52 33.4896 28.376C33.7242 28.2267 33.8949 28.0133 34.0016 27.736L34.1296 28.128C34.0229 28.4053 33.8362 28.6267 33.5696 28.792C33.3082 28.9573 32.9776 29.04 32.5776 29.04ZM38.2563 24.76C38.5976 24.76 38.8963 24.8267 39.1523 24.96C39.4136 25.088 39.6163 25.2853 39.7603 25.552C39.9096 25.8187 39.9843 26.1547 39.9843 26.56V29H39.4163V26.616C39.4163 26.1733 39.3043 25.84 39.0803 25.616C38.8616 25.3867 38.5523 25.272 38.1523 25.272C37.8536 25.272 37.5923 25.3333 37.3683 25.456C37.1496 25.5733 36.979 25.7467 36.8563 25.976C36.739 26.2 36.6803 26.472 36.6803 26.792V29H36.1123V24.8H36.6563V25.952L36.5683 25.736C36.7016 25.432 36.915 25.1947 37.2083 25.024C37.5016 24.848 37.851 24.76 38.2563 24.76Z" fill="white"/>
</svg>
