<svg width="18" height="18" viewBox="0 0 18 18" fill="none" xmlns="http://www.w3.org/2000/svg">
<path d="M13.0784 5.3998C13.3774 5.09738 13.3774 4.61067 13.0784 4.30826C12.7746 4.00097 12.2783 4.00097 11.9745 4.30826L8.1577 8.16843C7.85869 8.47085 7.85869 8.95756 8.1577 9.25998C8.46153 9.56727 8.95782 9.56727 9.26166 9.25998L13.0784 5.3998ZM17.4546 4.3063C17.1494 3.99977 16.6528 4.00065 16.3487 4.30826L9.41992 11.3158C9.02883 11.7113 8.39014 11.7117 7.99858 11.3166L6.02587 9.32628C5.72174 9.01943 5.22566 9.01972 4.9219 9.32694C4.6227 9.62954 4.6227 10.1165 4.9219 10.4191L7.99858 13.5308C8.39 13.9267 9.02935 13.9267 9.42077 13.5308L17.4565 5.40367C17.7574 5.09942 17.7565 4.60949 17.4546 4.3063ZM0.545158 9.32557C0.243392 9.62862 0.242527 10.1183 0.54322 10.4224L3.77552 13.6915C4.07949 13.9989 4.576 13.9989 4.87996 13.6915C5.17892 13.3891 5.17914 12.9026 4.88045 12.6L1.65108 9.32802C1.34715 9.02008 0.850452 9.01898 0.545158 9.32557Z" fill="#1D71B8"/>
</svg>
