<svg width="12" height="12" viewBox="0 0 12 12" fill="none" xmlns="http://www.w3.org/2000/svg">
<path d="M5.99998 0C4.36911 0 4.16586 0.007875 3.52761 0.034875C2.88673 0.066375 2.45323 0.16575 2.07073 0.31425C1.67041 0.465383 1.30786 0.702006 1.00836 1.00762C0.701886 1.30642 0.465131 1.66917 0.314982 2.07C0.166482 2.4525 0.0671074 2.886 0.0356074 3.52688C0.00673242 4.1655 0.000732422 4.36837 0.000732422 5.99925C0.000732422 7.63013 0.00860742 7.83337 0.0356074 8.47162C0.0671074 9.11063 0.166482 9.546 0.314982 9.9285C0.466115 10.3288 0.702738 10.6914 1.00836 10.9909C1.30716 11.2973 1.66991 11.5341 2.07073 11.6842C2.45323 11.8309 2.88861 11.9321 3.52761 11.9636C4.16623 11.9925 4.36911 11.9985 5.99998 11.9985C7.63086 11.9985 7.83411 11.9906 8.47236 11.9636C9.11136 11.9321 9.54673 11.8305 9.92923 11.6842C10.3296 11.5331 10.6921 11.2965 10.9916 10.9909C11.2985 10.6924 11.5353 10.3296 11.685 9.9285C11.8316 9.546 11.9329 9.11063 11.9644 8.47162C11.9932 7.833 11.9992 7.63013 11.9992 5.99925C11.9992 4.36837 11.9914 4.16512 11.9644 3.52688C11.9329 2.88787 11.8312 2.45025 11.685 2.07C11.5338 1.66967 11.2972 1.30712 10.9916 1.00762C10.6931 0.700759 10.3303 0.463942 9.92923 0.31425C9.54673 0.16575 9.11136 0.066375 8.47236 0.034875C7.83373 0.006 7.63086 0 5.99998 0ZM5.99998 1.08C7.60161 1.08 7.79286 1.08788 8.42586 1.11488C9.00973 1.14225 9.32773 1.23975 9.53886 1.32225C9.79987 1.4186 10.0361 1.57194 10.2304 1.77113C10.4292 1.96456 10.582 2.20026 10.6774 2.46075C10.7599 2.67188 10.8574 2.98987 10.8847 3.57375C10.9117 4.20675 10.9196 4.39838 10.9196 5.99962C10.9196 7.60087 10.9117 7.7925 10.8825 8.4255C10.851 9.00938 10.7535 9.32738 10.6714 9.5385C10.5577 9.82013 10.431 10.017 10.2217 10.23C10.0268 10.4279 9.79074 10.5805 9.53023 10.677C9.32173 10.7595 8.99923 10.857 8.41311 10.8844C7.77673 10.9114 7.58923 10.9193 5.98348 10.9193C4.37773 10.9193 4.19061 10.9114 3.55348 10.8821C2.96961 10.8506 2.64748 10.7531 2.43636 10.671C2.15136 10.5574 1.95598 10.4306 1.74673 10.2214C1.53561 10.0103 1.40136 9.80925 1.29786 9.52987C1.21386 9.32137 1.11786 8.99887 1.08673 8.41275C1.06536 7.78387 1.05523 7.58888 1.05523 5.99063C1.05523 4.39313 1.06536 4.19775 1.08673 3.561C1.11786 2.97488 1.21386 2.65313 1.29786 2.44388C1.40136 2.1585 1.53598 1.9635 1.74673 1.75237C1.95561 1.5435 2.15136 1.4085 2.43636 1.30275C2.64748 1.22063 2.96173 1.12313 3.54786 1.09388C4.18423 1.071 4.37173 1.06275 5.97523 1.06275L5.99998 1.08ZM5.99998 2.92013C5.59549 2.91998 5.19492 2.99954 4.82119 3.15427C4.44746 3.30899 4.10787 3.53585 3.82185 3.82187C3.53583 4.10789 3.30897 4.44747 3.15425 4.82121C2.99952 5.19494 2.91996 5.5955 2.92011 6C2.91996 6.4045 2.99952 6.80506 3.15425 7.17879C3.30897 7.55253 3.53583 7.89211 3.82185 8.17813C4.10787 8.46415 4.44746 8.69101 4.82119 8.84573C5.19492 9.00046 5.59549 9.08002 5.99998 9.07987C6.40448 9.08002 6.80504 9.00046 7.17877 8.84573C7.55251 8.69101 7.89209 8.46415 8.17811 8.17813C8.46413 7.89211 8.69099 7.55253 8.84572 7.17879C9.00044 6.80506 9.08 6.4045 9.07986 6C9.08 5.5955 9.00044 5.19494 8.84572 4.82121C8.69099 4.44747 8.46413 4.10789 8.17811 3.82187C7.89209 3.53585 7.55251 3.30899 7.17877 3.15427C6.80504 2.99954 6.40448 2.91998 5.99998 2.92013ZM5.99998 7.99988C4.89448 7.99988 4.00011 7.1055 4.00011 6C4.00011 4.8945 4.89448 4.00012 5.99998 4.00012C7.10548 4.00012 7.99986 4.8945 7.99986 6C7.99986 7.1055 7.10548 7.99988 5.99998 7.99988ZM9.92398 2.79713C9.92378 2.98825 9.84772 3.17148 9.7125 3.30655C9.57729 3.44163 9.39398 3.5175 9.20286 3.5175C9.10835 3.5175 9.01478 3.49889 8.92747 3.46272C8.84016 3.42656 8.76083 3.37355 8.69401 3.30673C8.62718 3.2399 8.57417 3.16057 8.53801 3.07326C8.50185 2.98595 8.48323 2.89238 8.48323 2.79787C8.48323 2.70337 8.50185 2.6098 8.53801 2.52249C8.57417 2.43518 8.62718 2.35585 8.69401 2.28902C8.76083 2.2222 8.84016 2.16919 8.92747 2.13303C9.01478 2.09686 9.10835 2.07825 9.20286 2.07825C9.59923 2.07825 9.92398 2.40075 9.92398 2.79713Z" fill="white"/>
</svg>
