<svg width="12" height="12" viewBox="0 0 12 12" fill="none" xmlns="http://www.w3.org/2000/svg">
<path fill-rule="evenodd" clip-rule="evenodd" d="M5.57311 0.0150795C4.14261 0.118037 2.78506 0.741187 1.76243 1.76426C-0.0094424 3.53691 -0.495174 6.19812 0.536211 8.48255C0.627008 8.68365 0.819709 9.04296 0.928422 9.21387C0.957466 9.25954 0.918536 9.35632 0.488969 10.3062C0.229725 10.8794 0.0121826 11.3801 0.00551429 11.4188C-0.0285083 11.6169 0.0986127 11.8579 0.284575 11.948C0.513106 12.0587 0.706042 12.0199 2.40616 11.5222C2.79891 11.4072 3.13989 11.3131 3.16391 11.3131C3.18793 11.3131 3.29432 11.3568 3.40036 11.4101C3.94333 11.6832 4.6537 11.89 5.33147 11.9721C5.67325 12.0135 6.40043 12.0079 6.75202 11.9612C7.42942 11.8712 8.01118 11.6953 8.61868 11.3968C9.25508 11.0841 9.755 10.7285 10.2389 10.2444C11.8887 8.59389 12.4328 6.15849 11.6434 3.95823C11.5952 3.82391 11.4738 3.54863 11.3737 3.34647C10.7767 2.14142 9.83622 1.20763 8.61934 0.611568C7.66934 0.146249 6.61607 -0.0599954 5.57311 0.0150795ZM6.70506 1.08546C7.24461 1.16321 7.6679 1.29445 8.17256 1.54042C9.18302 2.03289 9.97043 2.82066 10.4626 3.83147C10.8139 4.55293 10.9606 5.19297 10.9606 6.00432C10.9606 6.81568 10.8139 7.45572 10.4626 8.17718C9.97085 9.18714 9.18209 9.97625 8.17256 10.4682C7.45203 10.8194 6.81281 10.9661 6.00065 10.9667C5.16622 10.9673 4.53738 10.8173 3.75554 10.4311C3.43337 10.272 3.3332 10.2327 3.25072 10.2332C3.19413 10.2336 2.76754 10.3385 2.30276 10.4664C1.83797 10.5943 1.45522 10.6964 1.45217 10.6934C1.44914 10.6904 1.58377 10.3856 1.75133 10.0162C2.14525 9.14786 2.14276 9.18145 1.84593 8.72917C1.45175 8.1286 1.18391 7.41839 1.07876 6.6948C1.02523 6.32649 1.02582 5.66602 1.07999 5.31136C1.16667 4.7437 1.29311 4.33574 1.53869 3.83147C1.93297 3.02183 2.50492 2.36812 3.26523 1.85813C3.53278 1.67866 4.06179 1.4135 4.3579 1.31043C4.73435 1.1794 5.28022 1.06869 5.69541 1.03916C5.91357 1.02366 6.44539 1.04804 6.70506 1.08546ZM3.77493 3.35119C3.58026 3.44851 3.32783 3.71945 3.21693 3.95012C3.05705 4.28265 3.03228 4.62855 3.1371 5.0645C3.49611 6.55787 5.55601 8.39996 7.22007 8.71576C7.46534 8.76232 7.84546 8.76269 8.041 8.71658C8.52549 8.60233 8.9528 8.1449 8.97849 7.71305C8.99108 7.50162 8.92019 7.35314 8.71509 7.16117C8.43763 6.90151 7.98742 6.70795 7.64456 6.70095C7.39396 6.69583 7.3297 6.74232 7.08205 7.10785C6.8789 7.4077 6.8249 7.45203 6.69355 7.42673C6.60123 7.40893 6.19765 7.21356 5.98891 7.08563C5.49412 6.78237 4.98124 6.2626 4.67434 5.75338C4.55088 5.54857 4.56142 5.50081 4.79009 5.22915C4.8499 5.15809 4.93165 5.03378 4.97174 4.9529C5.03955 4.81614 5.04377 4.7931 5.03215 4.62347C5.00749 4.26355 4.79582 3.77623 4.55546 3.52591C4.31033 3.27069 4.05176 3.21279 3.77493 3.35119Z" fill="#39AE41"/>
</svg>
