<svg width="13" height="15" viewBox="0 0 13 15" fill="none" xmlns="http://www.w3.org/2000/svg">
<path d="M6.80566 0C5.21437 0 3.68824 0.632139 2.56302 1.75735C1.43781 2.88257 0.805664 4.40869 0.805664 5.99998C0.805664 10.05 6.09316 14.625 6.31816 14.82C6.45401 14.9361 6.6269 15 6.80566 15C6.98443 15 7.15731 14.9361 7.29316 14.82C7.55566 14.625 12.8057 10.05 12.8057 5.99998C12.8057 4.40869 12.1735 2.88257 11.0483 1.75735C9.92309 0.632139 8.39696 0 6.80566 0ZM6.80566 13.2375C5.20816 11.7375 2.30566 8.50497 2.30566 5.99998C2.30566 4.80651 2.77977 3.66192 3.62368 2.81801C4.4676 1.9741 5.61219 1.5 6.80566 1.5C7.99914 1.5 9.14373 1.9741 9.98765 2.81801C10.8316 3.66192 11.3057 4.80651 11.3057 5.99998C11.3057 8.50497 8.40316 11.745 6.80566 13.2375ZM6.80566 2.99999C6.21232 2.99999 5.6323 3.17594 5.13895 3.50558C4.64561 3.83522 4.26109 4.30376 4.03403 4.85193C3.80696 5.40011 3.74755 6.00331 3.86331 6.58525C3.97906 7.16719 4.26479 7.70174 4.68434 8.12129C5.1039 8.54085 5.63845 8.82657 6.22039 8.94233C6.80234 9.05808 7.40554 8.99867 7.95371 8.77161C8.50189 8.54455 8.97043 8.16003 9.30007 7.66669C9.62972 7.17334 9.80566 6.59332 9.80566 5.99998C9.80566 5.20433 9.48959 4.44127 8.92698 3.87867C8.36438 3.31606 7.60131 2.99999 6.80566 2.99999ZM6.80566 7.49998C6.50899 7.49998 6.21898 7.412 5.97231 7.24718C5.72564 7.08236 5.53338 6.84809 5.41984 6.574C5.30631 6.29992 5.27661 5.99832 5.33449 5.70735C5.39236 5.41638 5.53523 5.1491 5.745 4.93932C5.95478 4.72955 6.22206 4.58668 6.51303 4.52881C6.804 4.47093 7.1056 4.50063 7.37969 4.61417C7.65378 4.7277 7.88805 4.91996 8.05287 5.16663C8.21769 5.4133 8.30566 5.70331 8.30566 5.99998C8.30566 6.3978 8.14763 6.77933 7.86632 7.06064C7.58502 7.34194 7.20349 7.49998 6.80566 7.49998Z" fill="white"/>
</svg>
